<svg width="235" height="54" viewBox="0 0 235 54" fill="none" xmlns="http://www.w3.org/2000/svg">
    <path d="M40.4552 2.06271C39.0525 -1.30484 28.3277 4.13051 23.1406 7.26912V16.3527L32.1267 18.9005L32.2363 52.7976H37.3868V26.4332C37.0581 25.8793 39.1402 25.4362 39.5785 25.3254C39.9292 25.2368 40.6744 25.0669 41.0032 24.9931V4.61053C41.0032 4.07881 40.857 3.28123 40.784 2.94891L40.4552 2.06271Z" fill="#FFFFFF" stroke="#FFFFFF"/>
    <path d="M39.5311 6.47984C38.3265 2.74433 28.3427 7.73951 23.3423 10.8023C23.2836 10.8382 23.25 10.9009 23.25 10.9697V11.0602C23.25 11.2155 23.4182 11.3124 23.552 11.2334C29.5932 7.667 37.7395 4.21784 38.9497 6.66634C39.0018 6.77163 39.1242 6.83313 39.2331 6.7891L39.4191 6.71386C39.5107 6.67684 39.5614 6.57384 39.5311 6.47984Z" fill="#E5E5E5"/>
    <path d="M39.4218 8.75621C38.2171 5.0207 28.2333 10.0159 23.2329 13.0786C23.1742 13.1146 23.1406 13.1772 23.1406 13.2461V13.3366C23.1406 13.4919 23.3088 13.5887 23.4426 13.5098C29.4838 9.94337 37.6301 6.49421 38.8403 8.9427C38.8924 9.048 39.0148 9.1095 39.1237 9.06547L39.3098 8.99023C39.4013 8.9532 39.4521 8.85021 39.4218 8.75621Z" fill="#E5E5E5"/>
    <path d="M39.5311 11.1932C38.3265 7.45771 28.3427 12.4529 23.3423 15.5156C23.2836 15.5516 23.25 15.6142 23.25 15.6831V15.7736C23.25 15.9289 23.4182 16.0258 23.552 15.9468C29.5932 12.3804 37.7395 8.93122 38.9497 11.3797C39.0018 11.485 39.1242 11.5465 39.2331 11.5025L39.4191 11.4272C39.5107 11.3902 39.5614 11.2872 39.5311 11.1932Z" fill="#E5E5E5"/>
    <path d="M25.3885 16.6709L25.3812 16.7284C25.3608 16.8913 25.5337 17.0093 25.6774 16.9304C30.8686 14.0826 37.5878 11.5658 38.743 13.6496C38.7999 13.7523 38.9239 13.8089 39.031 13.7614L39.1826 13.6941C39.2692 13.6557 39.317 13.5577 39.2893 13.4669C38.2822 10.1552 29.8489 14.006 25.4867 16.5098C25.4326 16.5409 25.3981 16.5946 25.3903 16.6566L25.3885 16.6709Z" fill="#E5E5E5"/>
    <path d="M27.9883 17.821L27.9808 17.8475C27.9333 18.0143 28.1069 18.1594 28.2623 18.0836C32.59 15.9716 37.8822 14.2924 38.9945 15.8447C39.0504 15.9226 39.1461 15.9681 39.238 15.9429L39.423 15.8922C39.5231 15.8648 39.586 15.7618 39.5553 15.6621C38.7355 13.0025 31.8249 15.7689 28.0865 17.6997C28.0379 17.7248 28.0033 17.7682 27.9883 17.821Z" fill="#E5E5E5"/>
    <path d="M39.3112 18.2971L39.1262 18.3478C39.0342 18.373 38.9387 18.3278 38.8829 18.2498C38.0646 17.1074 34.983 17.7147 31.6876 18.9568C31.5733 18.9999 31.4464 18.9315 31.4199 18.8116L31.397 18.7081C31.376 18.6129 31.426 18.5167 31.516 18.4804C35.0032 17.0747 38.8476 16.1252 39.444 18.0689C39.4746 18.1686 39.4113 18.2697 39.3112 18.2971Z" fill="#E5E5E5"/>
    <path d="M39.5416 20.5918L39.3567 20.6425C39.2647 20.6677 39.1691 20.6224 39.1133 20.5445C38.2951 19.402 35.2134 20.0094 31.9181 21.2515C31.8038 21.2946 31.6768 21.2262 31.6504 21.1062L31.6275 21.0027C31.6065 20.9076 31.6565 20.8114 31.7464 20.7751C35.2337 19.3694 39.0781 18.4199 39.6745 20.3636C39.7051 20.4633 39.6417 20.5644 39.5416 20.5918Z" fill="#E5E5E5"/>
    <path d="M39.5835 23.1971L39.3964 23.2394C39.3035 23.2604 39.2101 23.211 39.1578 23.1307C38.3907 21.9524 35.2852 22.4208 31.9384 23.5137C31.8224 23.5516 31.6987 23.4776 31.6775 23.3566L31.6592 23.2522C31.6424 23.1561 31.6966 23.0622 31.7881 23.03C35.3336 21.7824 39.2158 21.0065 39.7263 22.975C39.7525 23.076 39.6847 23.1742 39.5835 23.1971Z" fill="#E5E5E5"/>
    <path d="M39.1821 25.455L39.0413 25.4853C38.9395 25.5071 38.8396 25.4445 38.791 25.3515C38.1957 24.213 35.4139 24.5878 32.351 25.5597C32.2261 25.5994 32.0963 25.51 32.0889 25.3782L32.0842 25.2952C32.0793 25.2062 32.1332 25.1248 32.217 25.0959C35.5238 23.9552 39.0876 23.2882 39.331 25.2536C39.3429 25.3493 39.2757 25.4349 39.1821 25.455Z" fill="#E5E5E5"/>
    <path d="M32.0982 27.9325L32.0799 27.8281C32.0631 27.732 32.1174 27.638 32.2089 27.6059C33.9266 27.0014 35.7233 26.5077 37.1774 26.3832C37.2924 26.3733 37.3898 26.4658 37.3898 26.5817L37.3898 26.8269C37.3898 26.9349 37.3049 27.0228 37.1975 27.0285C35.8669 27.0999 34.1473 27.5056 32.3589 28.0897C32.2428 28.1276 32.1194 28.0534 32.0982 27.9325Z" fill="#E5E5E5"/>
    <path d="M32.0982 30.2071L32.0799 30.1027C32.0631 30.0067 32.1174 29.9127 32.2089 29.8805C33.9266 29.2761 35.7233 28.7824 37.1774 28.6578C37.2924 28.648 37.3898 28.7404 37.3898 28.8563L37.3898 29.1016C37.3898 29.2096 37.3049 29.2974 37.1975 29.3032C35.8669 29.3746 34.1473 29.7803 32.3589 30.3643C32.2428 30.4022 32.1194 30.3281 32.0982 30.2071Z" fill="#E5E5E5"/>
    <path d="M32.0982 32.6442L32.0799 32.5398C32.0631 32.4437 32.1174 32.3497 32.2089 32.3175C33.9266 31.7131 35.7233 31.2194 37.1774 31.0948C37.2924 31.085 37.3898 31.1774 37.3898 31.2933L37.3898 31.5386C37.3898 31.6466 37.3049 31.7345 37.1975 31.7402C35.8669 31.8116 34.1473 32.2173 32.3589 32.8013C32.2428 32.8392 32.1194 32.7651 32.0982 32.6442Z" fill="#E5E5E5"/>
    <path d="M32.0982 34.9191L32.0799 34.8147C32.0631 34.7186 32.1174 34.6246 32.2089 34.5924C33.9266 33.988 35.7233 33.4943 37.1774 33.3698C37.2924 33.3599 37.3898 33.4523 37.3898 33.5682L37.3898 33.8135C37.3898 33.9215 37.3049 34.0094 37.1975 34.0151C35.8669 34.0865 34.1473 34.4922 32.3589 35.0762C32.2428 35.1141 32.1194 35.04 32.0982 34.9191Z" fill="#E5E5E5"/>
    <path d="M17.2284 52.4972V20.0402C17.1198 17.3816 17.6683 16.3844 18.6535 15.9972C19.4705 15.676 20.8457 15.9415 21.7215 16.0523L31.9134 18.7109V52.4972H17.2284Z" fill="#E5E5E5" stroke="#E5E5E5"/>
    <rect x="21.5977" y="16.73" width="1.09586" height="19.9395" rx="0.547931" fill="#FFFFFF"/>
    <rect x="23.7891" y="17.3945" width="1.09586" height="19.9395" rx="0.547931" fill="#FFFFFF"/>
    <rect x="25.9805" y="17.8376" width="1.09586" height="19.9395" rx="0.547931" fill="#FFFFFF"/>
    <rect x="28.1719" y="18.2808" width="1.09586" height="19.9395" rx="0.547931" fill="#FFFFFF"/>
    <path d="M16.802 52.7799L16.9004 22.0471L17.05 19.109C17.1006 18.1154 17.5196 17.1764 18.2253 16.4751L19.0333 15.6722C19.0658 15.6398 19.0862 15.5973 19.0911 15.5517L19.3106 13.5175C19.8338 6.84268 7.81638 13.0076 1.65662 16.453C1.59397 16.488 1.55726 16.5527 1.55667 16.6245L1.50334 23.1794L1.48122 25.8973L1.47254 26.9636L1.45204 29.4836C1.45069 29.6496 1.68315 29.8541 1.84779 29.8755C3.00166 30.0255 6.24626 31.0837 8.06693 31.7149C8.14732 31.7427 8.19979 31.818 8.19979 31.9031V52.8C8.19979 52.9104 8.28934 53 8.39979 53H16.602C16.7124 53 16.802 52.9104 16.802 52.8V52.7799Z" fill="#FFFFFF"/>
    <path d="M1.44873 22.5172L1.55762 23.8377M1.44873 24.608V25.8197C1.44873 25.8798 1.49748 25.9286 1.55762 25.9286V25.9286M1.44873 26.6989L1.55762 27.9094M16.9004 22.0471L16.802 52.7799V52.8C16.802 52.9104 16.7124 53 16.602 53H8.39979C8.28934 53 8.19979 52.9104 8.19979 52.8V31.9031C8.19979 31.818 8.14732 31.7427 8.06693 31.7149C6.24626 31.0837 3.00166 30.0255 1.84779 29.8755C1.68315 29.8541 1.45069 29.6496 1.45204 29.4836L1.55667 16.6245C1.55726 16.5527 1.59397 16.488 1.65662 16.453C7.81638 13.0076 19.8338 6.84268 19.3106 13.5175L19.0911 15.5517C19.0862 15.5973 19.0658 15.6398 19.0333 15.6722L18.2253 16.4751C17.5196 17.1764 17.1006 18.1154 17.05 19.109L16.9004 22.0471Z" stroke="#FFFFFF"/>
    <path d="M19.2885 14.5873C18.6534 10.4773 7.0101 16.442 1.52301 19.8928C1.47261 19.9245 1.44406 19.9785 1.44375 20.038L1.44494 20.2521C1.4458 20.4079 1.61539 20.5036 1.74855 20.4224C8.38139 16.3807 17.2049 12.2204 18.6107 14.8043C18.6659 14.9056 18.788 14.9615 18.894 14.9154L19.1742 14.7935C19.2531 14.7592 19.3017 14.6723 19.2885 14.5873Z" fill="#E5E5E5"/>
    <path d="M18.7527 15.696C15.7693 14.0012 6.62991 18.7123 1.5424 21.7692C1.4831 21.8048 1.44823 21.8675 1.44725 21.9367L1.44408 22.1578C1.44612 22.3079 1.60578 22.4055 1.73804 22.3344C8.16646 18.8817 15.7801 15.1114 18.0915 16.3285C18.1648 16.3671 18.2532 16.3654 18.3205 16.3168L18.758 16.0008C18.8666 15.9224 18.869 15.7621 18.7527 15.696Z" fill="#E5E5E5"/>
    <path d="M17.1153 17.427C15.3796 16.5086 6.14703 21.266 1.54804 23.8741C1.48547 23.9095 1.44922 23.9746 1.44922 24.0465V24.3537C1.44922 24.5088 1.61692 24.6058 1.75064 24.5271C6.59376 21.6751 13.7029 18.2607 16.8828 18.0653C16.9622 18.0604 17.0294 18.0113 17.0586 17.9374L17.178 17.6357C17.209 17.5574 17.1897 17.4664 17.1153 17.427Z" fill="#E5E5E5"/>
    <path d="M17.1153 19.5044C15.3796 18.586 6.14703 23.3434 1.54804 25.9515C1.48547 25.9869 1.44922 26.052 1.44922 26.1239V26.4311C1.44922 26.5862 1.61692 26.6832 1.75064 26.6045C6.59376 23.7525 13.7029 20.3381 16.8828 20.1427C16.9622 20.1378 17.0294 20.0887 17.0586 20.0148L17.178 19.7131C17.209 19.6348 17.1897 19.5438 17.1153 19.5044Z" fill="#E5E5E5"/>
    <path d="M17.1153 21.4983C15.3796 20.5799 6.14703 25.3373 1.54804 27.9453C1.48547 27.9808 1.44922 28.0459 1.44922 28.1178V28.425C1.44922 28.5801 1.61692 28.6771 1.75064 28.5984C6.59376 25.7464 13.7029 22.332 16.8828 22.1366C16.9622 22.1317 17.0294 22.0826 17.0586 22.0087L17.178 21.707C17.209 21.6287 17.1897 21.5377 17.1153 21.4983Z" fill="#E5E5E5"/>
    <path d="M59.24 24H57.288V20.848C57.288 20.6347 57.2933 20.3573 57.304 20.016C57.3253 19.664 57.352 19.3333 57.384 19.024H57.336C56.9947 19.5467 56.5307 19.9573 55.944 20.256C55.3573 20.5547 54.68 20.704 53.912 20.704C52.7707 20.704 51.8693 20.3893 51.208 19.76C50.5573 19.12 50.232 18.1333 50.232 16.8V12.576H52.184V16.352C52.184 17.2587 52.3653 17.9413 52.728 18.4C53.1013 18.848 53.688 19.072 54.488 19.072C55.5013 19.072 56.2213 18.7627 56.648 18.144C57.0747 17.5147 57.288 16.6347 57.288 15.504V14.368H59.24V24ZM66.4483 24.16C65.0296 24.16 63.9416 23.7813 63.1843 23.024C62.4376 22.2667 62.0643 21.2373 62.0643 19.936V12.576H64.0003V19.648C64.0003 20.672 64.2136 21.408 64.6403 21.856C65.0776 22.304 65.7016 22.528 66.5123 22.528C67.3443 22.528 67.9683 22.2987 68.3843 21.84C68.8003 21.3707 69.0083 20.6507 69.0083 19.68V12.576H70.9603V19.968C70.9603 20.1067 70.9549 20.24 70.9443 20.368C71.0616 20.3467 71.1843 20.336 71.3123 20.336C72.1336 20.336 72.7629 20.56 73.2003 21.008C73.6376 21.4453 73.8563 22.1707 73.8563 23.184V24H72.1603V23.296C72.1603 22.7413 72.0643 22.3573 71.8723 22.144C71.6803 21.92 71.3923 21.808 71.0083 21.808C70.8589 21.808 70.7256 21.8133 70.6083 21.824C70.2989 22.5493 69.7923 23.12 69.0883 23.536C68.3949 23.952 67.5149 24.16 66.4483 24.16ZM75.5486 24V16.608C75.5486 15.776 75.714 15.0453 76.0446 14.416C76.3753 13.7867 76.8713 13.296 77.5326 12.944C78.194 12.592 79.0153 12.416 79.9966 12.416C81.426 12.416 82.5086 12.7947 83.2446 13.552C83.9913 14.3093 84.3646 15.3387 84.3646 16.64V18.448H86.6846V20.08H84.3646V24H82.4126V16.928C82.4126 15.8933 82.2046 15.1573 81.7886 14.72C81.3726 14.272 80.7593 14.048 79.9486 14.048C79.1166 14.048 78.498 14.2773 78.0926 14.736C77.6873 15.1947 77.4846 15.9147 77.4846 16.896V24H75.5486ZM88.5483 24V16.608C88.5483 15.776 88.7189 15.0453 89.0603 14.416C89.4016 13.7867 89.9029 13.296 90.5643 12.944C91.2363 12.592 92.0629 12.416 93.0443 12.416C94.4629 12.416 95.5509 12.7947 96.3083 13.552C97.0656 14.3093 97.4443 15.3387 97.4443 16.64V24H95.4923V16.912C95.4923 15.888 95.2789 15.1573 94.8523 14.72C94.4256 14.272 93.8016 14.048 92.9803 14.048C92.1589 14.048 91.5403 14.2773 91.1243 14.736C90.7083 15.1947 90.5003 15.9093 90.5003 16.88V24H88.5483ZM99.9563 24V12.576H101.908V15.232H102.58C103.135 15.232 103.578 15.2907 103.908 15.408C104.25 15.5253 104.548 15.7493 104.804 16.08C105.071 16.4 105.364 16.8747 105.684 17.504C105.951 18.0373 106.17 18.4267 106.34 18.672C106.511 18.9173 106.671 19.0773 106.82 19.152C106.97 19.216 107.146 19.248 107.348 19.248H107.732V20.88H107.14C106.532 20.88 106.02 20.736 105.604 20.448C105.199 20.1493 104.826 19.6587 104.484 18.976C104.186 18.3573 103.94 17.8987 103.748 17.6C103.556 17.3013 103.364 17.104 103.172 17.008C102.98 16.912 102.735 16.864 102.436 16.864H101.908V24H99.9563ZM118.211 20.72C118.211 21.808 117.779 22.656 116.915 23.264C116.062 23.8613 114.883 24.16 113.379 24.16C112.728 24.16 112.083 24.0853 111.443 23.936C110.803 23.7867 110.259 23.6107 109.811 23.408V21.664C110.419 21.952 111.022 22.1707 111.619 22.32C112.227 22.4587 112.798 22.528 113.331 22.528C114.28 22.528 115 22.3733 115.491 22.064C115.992 21.744 116.243 21.2907 116.243 20.704C116.243 20.128 115.998 19.6747 115.507 19.344C115.016 19.0133 114.318 18.7627 113.411 18.592L110.067 19.536L109.571 18.064L111.107 17.648C110.52 17.3493 110.094 17.0027 109.827 16.608C109.571 16.2133 109.443 15.744 109.443 15.2C109.443 14.624 109.619 14.128 109.971 13.712C110.323 13.296 110.803 12.976 111.411 12.752C112.019 12.528 112.718 12.416 113.507 12.416C114.808 12.416 115.811 12.6667 116.515 13.168C117.23 13.6587 117.587 14.336 117.587 15.2C117.587 15.776 117.406 16.2613 117.043 16.656C116.68 17.0507 116.179 17.3813 115.539 17.648V17.712C116.414 17.9253 117.075 18.304 117.523 18.848C117.982 19.392 118.211 20.016 118.211 20.72ZM111.379 15.312C111.379 15.568 111.432 15.792 111.539 15.984C111.656 16.176 111.864 16.3573 112.163 16.528C112.462 16.688 112.883 16.8533 113.427 17.024L113.811 16.928C114.398 16.768 114.846 16.56 115.155 16.304C115.475 16.0373 115.635 15.7067 115.635 15.312C115.635 14.8853 115.438 14.56 115.043 14.336C114.659 14.1013 114.147 13.984 113.507 13.984C112.878 13.984 112.366 14.1013 111.971 14.336C111.576 14.56 111.379 14.8853 111.379 15.312ZM124.886 24.16C123.467 24.16 122.379 23.7813 121.622 23.024C120.875 22.2667 120.502 21.2373 120.502 19.936V12.576H122.438V19.648C122.438 20.672 122.651 21.408 123.078 21.856C123.515 22.304 124.139 22.528 124.95 22.528C125.782 22.528 126.406 22.2987 126.822 21.84C127.238 21.3707 127.446 20.6507 127.446 19.68V12.576H129.398V19.968C129.398 20.1067 129.392 20.24 129.382 20.368C129.499 20.3467 129.622 20.336 129.75 20.336C130.571 20.336 131.2 20.56 131.638 21.008C132.075 21.4453 132.294 22.1707 132.294 23.184V24H130.598V23.296C130.598 22.7413 130.502 22.3573 130.31 22.144C130.118 21.92 129.83 21.808 129.446 21.808C129.296 21.808 129.163 21.8133 129.046 21.824C128.736 22.5493 128.23 23.12 127.526 23.536C126.832 23.952 125.952 24.16 124.886 24.16ZM132.638 18.72V16.608C132.638 15.776 132.841 15.0453 133.246 14.416C133.662 13.7867 134.27 13.296 135.07 12.944C135.881 12.592 136.878 12.416 138.062 12.416C139.769 12.416 141.075 12.7947 141.982 13.552C142.889 14.3093 143.342 15.3387 143.342 16.64V24H141.406V16.928C141.406 16.064 141.198 15.408 140.782 14.96C140.366 14.512 139.763 14.2293 138.974 14.112V21.344H137.006V14.112C135.395 14.3467 134.59 15.2747 134.59 16.896V18.72H132.638ZM150.542 24.16C149.123 24.16 148.035 23.7813 147.278 23.024C146.531 22.2667 146.158 21.2373 146.158 19.936V12.576H148.094V19.648C148.094 20.672 148.307 21.408 148.734 21.856C149.171 22.304 149.795 22.528 150.606 22.528C151.438 22.528 152.062 22.2987 152.478 21.84C152.894 21.3707 153.102 20.6507 153.102 19.68V12.576H155.054V19.968C155.054 20.1067 155.049 20.24 155.038 20.368C155.155 20.3467 155.278 20.336 155.406 20.336C156.227 20.336 156.857 20.56 157.294 21.008C157.731 21.4453 157.95 22.1707 157.95 23.184V24H156.254V23.296C156.254 22.7413 156.158 22.3573 155.966 22.144C155.774 21.92 155.486 21.808 155.102 21.808C154.953 21.808 154.819 21.8133 154.702 21.824C154.393 22.5493 153.886 23.12 153.182 23.536C152.489 23.952 151.609 24.16 150.542 24.16ZM166.778 20.896C166.778 21.92 166.405 22.72 165.658 23.296C164.912 23.872 163.888 24.16 162.586 24.16C161.904 24.16 161.264 24.0907 160.666 23.952C160.069 23.8133 159.52 23.632 159.018 23.408V21.632C159.68 21.9413 160.309 22.1707 160.906 22.32C161.514 22.4587 162.064 22.528 162.554 22.528C163.344 22.528 163.925 22.3947 164.298 22.128C164.672 21.8613 164.858 21.4827 164.858 20.992C164.858 20.6827 164.789 20.416 164.65 20.192C164.522 19.968 164.277 19.76 163.914 19.568C163.562 19.3653 163.05 19.1467 162.378 18.912C161.632 18.6453 161.018 18.3893 160.538 18.144C160.069 17.888 159.717 17.568 159.482 17.184C159.258 16.8 159.146 16.2667 159.146 15.584C159.146 14.5813 159.514 13.8027 160.25 13.248C160.986 12.6933 161.962 12.416 163.178 12.416C164.256 12.416 165.376 12.6667 166.538 13.168L166.042 14.752C165.456 14.4853 164.922 14.304 164.442 14.208C163.973 14.1013 163.525 14.048 163.098 14.048C162.416 14.048 161.904 14.176 161.562 14.432C161.221 14.688 161.05 15.0453 161.05 15.504C161.05 15.8133 161.114 16.0693 161.242 16.272C161.381 16.4747 161.616 16.6667 161.946 16.848C162.288 17.0187 162.762 17.2053 163.37 17.408C164.533 17.7813 165.392 18.2293 165.946 18.752C166.501 19.2747 166.778 19.9893 166.778 20.896ZM168.986 24V16.608C168.986 15.776 169.156 15.0453 169.498 14.416C169.839 13.7867 170.34 13.296 171.002 12.944C171.674 12.592 172.5 12.416 173.482 12.416C174.9 12.416 175.988 12.7947 176.746 13.552C177.503 14.3093 177.882 15.3387 177.882 16.64V24H175.93V16.912C175.93 15.888 175.716 15.1573 175.29 14.72C174.863 14.272 174.239 14.048 173.418 14.048C172.596 14.048 171.978 14.2773 171.562 14.736C171.146 15.1947 170.938 15.9093 170.938 16.88V24H168.986ZM191.217 22.368V24H186.625V16.88C186.625 15.8667 186.428 15.1413 186.033 14.704C185.638 14.2667 185.078 14.048 184.353 14.048C183.585 14.048 183.014 14.288 182.641 14.768C182.278 15.2373 182.097 15.9787 182.097 16.992H180.145C180.145 15.5733 180.502 14.4587 181.217 13.648C181.932 12.8267 182.993 12.416 184.401 12.416C185.724 12.416 186.748 12.7947 187.473 13.552C188.209 14.2987 188.577 15.328 188.577 16.64V22.368H191.217ZM196.968 24.16C195.645 24.16 194.605 23.7867 193.848 23.04C193.101 22.2827 192.728 21.248 192.728 19.936C192.728 18.9973 192.877 18.096 193.176 17.232C193.485 16.3573 193.874 15.5787 194.344 14.896C193.746 14.8213 193.293 14.5867 192.984 14.192C192.685 13.7973 192.536 13.2 192.536 12.4V11.84H194.472V12.416C194.472 12.9813 194.578 13.36 194.792 13.552C195.005 13.7333 195.341 13.824 195.799 13.824H196.728L196.856 14.064C196.504 14.5013 196.157 15.0453 195.816 15.696C195.485 16.3467 195.208 17.0453 194.984 17.792C194.77 18.528 194.664 19.2427 194.664 19.936C194.664 20.7467 194.861 21.3813 195.256 21.84C195.65 22.2987 196.221 22.528 196.968 22.528C197.746 22.528 198.312 22.32 198.664 21.904C199.016 21.4773 199.192 20.8693 199.192 20.08V17.296H201.128V20.208C201.128 21.4667 200.754 22.4427 200.008 23.136C199.272 23.8187 198.258 24.16 196.968 24.16ZM203.58 12.576H205.516V14.576H212.444V16.208H205.516V19.68C205.516 20.6507 205.719 21.3707 206.124 21.84C206.529 22.2987 207.148 22.528 207.98 22.528C208.833 22.528 209.457 22.2933 209.852 21.824C210.247 21.3547 210.444 20.6027 210.444 19.568H212.396C212.396 21.072 212.033 22.2133 211.308 22.992C210.593 23.7707 209.5 24.16 208.028 24.16C207.047 24.16 206.225 23.984 205.564 23.632C204.903 23.28 204.407 22.7893 204.076 22.16C203.745 21.5307 203.58 20.8 203.58 19.968V12.576ZM214.924 24V16.608C214.924 15.776 215.084 15.0453 215.404 14.416C215.734 13.7867 216.214 13.296 216.844 12.944C217.484 12.592 218.273 12.416 219.212 12.416C220.641 12.416 221.702 12.8053 222.396 13.584C223.089 14.3627 223.436 15.504 223.436 17.008H221.5C221.5 15.9733 221.313 15.2213 220.94 14.752C220.566 14.2827 219.974 14.048 219.164 14.048C218.385 14.048 217.804 14.2773 217.42 14.736C217.046 15.1947 216.86 15.9147 216.86 16.896V24H214.924ZM225.785 12.576H227.737V15.776C227.737 16.0747 227.726 16.3733 227.705 16.672C227.694 16.9707 227.668 17.2747 227.625 17.584H227.737V17.6C228.025 16.96 228.457 16.4853 229.033 16.176C229.609 15.8667 230.292 15.712 231.081 15.712C232.276 15.712 233.214 16.0747 233.897 16.8C234.58 17.5253 234.921 18.5013 234.921 19.728V20.56H232.969V19.856C232.969 18.1813 232.18 17.344 230.601 17.344C229.758 17.344 229.07 17.5787 228.537 18.048C228.004 18.5173 227.737 19.216 227.737 20.144V24H225.785V12.576ZM54.792 43.16C53.3733 43.16 52.2853 42.7813 51.528 42.024C50.7813 41.2667 50.408 40.2373 50.408 38.936V31.576H52.344V38.648C52.344 39.672 52.5573 40.408 52.984 40.856C53.4213 41.304 54.0453 41.528 54.856 41.528C55.688 41.528 56.312 41.2987 56.728 40.84C57.144 40.3707 57.352 39.6507 57.352 38.68V31.576H59.304V38.968C59.304 39.1067 59.2987 39.24 59.288 39.368C59.4053 39.3467 59.528 39.336 59.656 39.336C60.4773 39.336 61.1067 39.56 61.544 40.008C61.9813 40.4453 62.2 41.1707 62.2 42.184V43H60.504V42.296C60.504 41.7413 60.408 41.3573 60.216 41.144C60.024 40.92 59.736 40.808 59.352 40.808C59.2027 40.808 59.0693 40.8133 58.952 40.824C58.6427 41.5493 58.136 42.12 57.432 42.536C56.7387 42.952 55.8587 43.16 54.792 43.16ZM72.554 31.576V38.968C72.554 39.8 72.3833 40.5307 72.042 41.16C71.7007 41.7893 71.194 42.28 70.522 42.632C69.85 42.984 69.0233 43.16 68.042 43.16C66.6233 43.16 65.5353 42.7813 64.778 42.024C64.0313 41.2667 63.658 40.2373 63.658 38.936V31.576H65.594V38.664C65.594 39.688 65.8073 40.424 66.234 40.872C66.6713 41.3093 67.2953 41.528 68.106 41.528C68.938 41.528 69.562 41.2987 69.978 40.84C70.394 40.3813 70.602 39.6667 70.602 38.696V31.576H72.554ZM75.3451 43V35.608C75.3451 34.776 75.5158 34.0453 75.8571 33.416C76.1985 32.7867 76.6998 32.296 77.3611 31.944C78.0331 31.592 78.8598 31.416 79.8411 31.416C81.2598 31.416 82.3478 31.7947 83.1051 32.552C83.8625 33.3093 84.2411 34.3387 84.2411 35.64V43H82.2891V35.912C82.2891 34.888 82.0758 34.1573 81.6491 33.72C81.2225 33.272 80.5985 33.048 79.7771 33.048C78.9558 33.048 78.3371 33.2773 77.9211 33.736C77.5051 34.1947 77.2971 34.9093 77.2971 35.88V43H75.3451ZM95.3203 39.72C95.3203 40.808 94.8883 41.656 94.0243 42.264C93.1709 42.8613 91.9923 43.16 90.4883 43.16C89.8376 43.16 89.1923 43.0853 88.5523 42.936C87.9123 42.7867 87.3683 42.6107 86.9203 42.408V40.664C87.5283 40.952 88.1309 41.1707 88.7283 41.32C89.3363 41.4587 89.9069 41.528 90.4403 41.528C91.3896 41.528 92.1096 41.3733 92.6003 41.064C93.1016 40.744 93.3523 40.2907 93.3523 39.704C93.3523 39.128 93.1069 38.6747 92.6163 38.344C92.1256 38.0133 91.4269 37.7627 90.5203 37.592L87.1763 38.536L86.6803 37.064L88.2163 36.648C87.6296 36.3493 87.2029 36.0027 86.9363 35.608C86.6803 35.2133 86.5523 34.744 86.5523 34.2C86.5523 33.624 86.7283 33.128 87.0803 32.712C87.4323 32.296 87.9123 31.976 88.5203 31.752C89.1283 31.528 89.8269 31.416 90.6163 31.416C91.9176 31.416 92.9203 31.6667 93.6243 32.168C94.3389 32.6587 94.6962 33.336 94.6962 34.2C94.6962 34.776 94.5149 35.2613 94.1523 35.656C93.7896 36.0507 93.2883 36.3813 92.6483 36.648V36.712C93.5229 36.9253 94.1843 37.304 94.6323 37.848C95.0909 38.392 95.3203 39.016 95.3203 39.72ZM88.4883 34.312C88.4883 34.568 88.5416 34.792 88.6483 34.984C88.7656 35.176 88.9736 35.3573 89.2723 35.528C89.5709 35.688 89.9923 35.8533 90.5363 36.024L90.9203 35.928C91.5069 35.768 91.9549 35.56 92.2643 35.304C92.5843 35.0373 92.7443 34.7067 92.7443 34.312C92.7443 33.8853 92.5469 33.56 92.1523 33.336C91.7683 33.1013 91.2563 32.984 90.6163 32.984C89.9869 32.984 89.4749 33.1013 89.0803 33.336C88.6856 33.56 88.4883 33.8853 88.4883 34.312ZM97.6911 31.576H99.6431V34.776C99.6431 35.0747 99.6325 35.3733 99.6111 35.672C99.6005 35.9707 99.5738 36.2747 99.5311 36.584H99.6431V36.6C99.9311 35.96 100.363 35.4853 100.939 35.176C101.515 34.8667 102.198 34.712 102.987 34.712C104.182 34.712 105.12 35.0747 105.803 35.8C106.486 36.5253 106.827 37.5013 106.827 38.728V39.56H104.875V38.856C104.875 37.1813 104.086 36.344 102.507 36.344C101.664 36.344 100.976 36.5787 100.443 37.048C99.9098 37.5173 99.6431 38.216 99.6431 39.144V43H97.6911V31.576ZM113.48 43.16C112.061 43.16 110.973 42.7813 110.216 42.024C109.469 41.2667 109.096 40.2373 109.096 38.936V31.576H111.032V38.648C111.032 39.672 111.245 40.408 111.672 40.856C112.109 41.304 112.733 41.528 113.544 41.528C114.376 41.528 115 41.2987 115.416 40.84C115.832 40.3707 116.04 39.6507 116.04 38.68V31.576H117.992V38.968C117.992 39.1067 117.986 39.24 117.976 39.368C118.093 39.3467 118.216 39.336 118.344 39.336C119.165 39.336 119.794 39.56 120.232 40.008C120.669 40.4453 120.888 41.1707 120.888 42.184V43H119.192V42.296C119.192 41.7413 119.096 41.3573 118.904 41.144C118.712 40.92 118.424 40.808 118.04 40.808C117.89 40.808 117.757 40.8133 117.64 40.824C117.33 41.5493 116.824 42.12 116.12 42.536C115.426 42.952 114.546 43.16 113.48 43.16ZM130.836 39.72C130.836 40.808 130.404 41.656 129.54 42.264C128.687 42.8613 127.508 43.16 126.004 43.16C125.353 43.16 124.708 43.0853 124.068 42.936C123.428 42.7867 122.884 42.6107 122.436 42.408V40.664C123.044 40.952 123.647 41.1707 124.244 41.32C124.852 41.4587 125.423 41.528 125.956 41.528C126.905 41.528 127.625 41.3733 128.116 41.064C128.617 40.744 128.868 40.2907 128.868 39.704C128.868 39.128 128.623 38.6747 128.132 38.344C127.641 38.0133 126.943 37.7627 126.036 37.592L122.692 38.536L122.196 37.064L123.732 36.648C123.145 36.3493 122.719 36.0027 122.452 35.608C122.196 35.2133 122.068 34.744 122.068 34.2C122.068 33.624 122.244 33.128 122.596 32.712C122.948 32.296 123.428 31.976 124.036 31.752C124.644 31.528 125.343 31.416 126.132 31.416C127.433 31.416 128.436 31.6667 129.14 32.168C129.855 32.6587 130.212 33.336 130.212 34.2C130.212 34.776 130.031 35.2613 129.668 35.656C129.305 36.0507 128.804 36.3813 128.164 36.648V36.712C129.039 36.9253 129.7 37.304 130.148 37.848C130.607 38.392 130.836 39.016 130.836 39.72ZM124.004 34.312C124.004 34.568 124.057 34.792 124.164 34.984C124.281 35.176 124.489 35.3573 124.788 35.528C125.087 35.688 125.508 35.8533 126.052 36.024L126.436 35.928C127.023 35.768 127.471 35.56 127.78 35.304C128.1 35.0373 128.26 34.7067 128.26 34.312C128.26 33.8853 128.063 33.56 127.668 33.336C127.284 33.1013 126.772 32.984 126.132 32.984C125.503 32.984 124.991 33.1013 124.596 33.336C124.201 33.56 124.004 33.8853 124.004 34.312ZM133.207 31.576H135.159V34.776C135.159 35.0747 135.148 35.3733 135.127 35.672C135.116 35.9707 135.089 36.2747 135.047 36.584H135.159V36.6C135.447 35.96 135.879 35.4853 136.455 35.176C137.031 34.8667 137.713 34.712 138.503 34.712C139.697 34.712 140.636 35.0747 141.319 35.8C142.001 36.5253 142.343 37.5013 142.343 38.728V39.56H140.391V38.856C140.391 37.1813 139.601 36.344 138.023 36.344C137.18 36.344 136.492 36.5787 135.959 37.048C135.425 37.5173 135.159 38.216 135.159 39.144V43H133.207V31.576ZM148.995 43.16C147.576 43.16 146.488 42.7813 145.731 42.024C144.984 41.2667 144.611 40.2373 144.611 38.936V31.576H146.547V38.648C146.547 39.672 146.76 40.408 147.187 40.856C147.624 41.304 148.248 41.528 149.059 41.528C149.891 41.528 150.515 41.2987 150.931 40.84C151.347 40.3707 151.555 39.6507 151.555 38.68V31.576H153.507V38.968C153.507 39.1067 153.502 39.24 153.491 39.368C153.608 39.3467 153.731 39.336 153.859 39.336C154.68 39.336 155.31 39.56 155.747 40.008C156.184 40.4453 156.403 41.1707 156.403 42.184V43H154.707V42.296C154.707 41.7413 154.611 41.3573 154.419 41.144C154.227 40.92 153.939 40.808 153.555 40.808C153.406 40.808 153.272 40.8133 153.155 40.824C152.846 41.5493 152.339 42.12 151.635 42.536C150.942 42.952 150.062 43.16 148.995 43.16Z" fill="#FFFFFF"/>
</svg>
